<svg width="1080" height="805" version="1.1" viewBox="0 0 1080 805" xmlns="http://www.w3.org/2000/svg"><path d="m113.75 729.2c-3.7125-0.16263-6.75-0.57986-6.75-0.92717 0-0.34732 1.3168-1.7893 2.9263-3.2043 1.8243-1.604 4.5033-6.3385 7.1141-12.573 8.4115-20.086 11.711-27 12.882-27 0.98193 0 9.3007 17.77 16.773 35.828 0.90947 2.198 2.5889 4.21 3.9441 4.7252 4.5702 1.7376 2.2659 2.8083-6.7276 3.1259-4.9983 0.17653-9.2423 0.16448-9.4311-0.0268-0.90828-0.92013 0.95112-3.1522 2.6259-3.1522 2.3085 0 2.3477-0.82324 0.28443-5.9798l-1.6086-4.0202h-15.479l-1.6364 4.1659c-1.7066 4.3445-0.99423 6.8341 1.9555 6.8341 1.4446 0 1.9196 1.6586 0.62756 2.191-0.4125 0.16996-3.7875 0.17596-7.5 0.0133zm17.802-23.541c-1.2434-2.8396-2.5004-5.8379-2.7933-6.6629-0.52978-1.4921-5.7574 8.7435-5.7602 11.279-9.6e-4 0.85308 1.6297 1.1198 5.4064 0.88436l5.4078-0.33712zm88.675 22.221c-9.3357-4.6211-13.227-14.122-10.735-26.214 1.0479-5.085 1.943-6.6878 5.736-10.272 8.8505-8.3622 21.556-8.3402 29.948 0.0518 4.2756 4.2756 5.8229 8.6578 5.8229 16.491 0 7.7176-1.8438 12.729-6.1663 16.761-5.9218 5.5238-16.984 6.954-24.606 3.1813zm16.406-4.1152c4.1285-2.8289 5.4736-5.7574 6.0941-13.268 0.62498-7.5642-1.0902-14.017-4.6803-17.607-10.709-10.709-23.537 2.3752-20.203 20.607 2.0011 10.943 10.792 15.748 18.789 10.268zm47.695 5.0241c-0.54289-0.71081-1.7004-2.8674-2.5723-4.7924s-3.575-7.775-6.007-13-4.6924-10.175-5.0231-11-0.51675 4.3447-0.41349 11.488l0.18776 12.988 2.75 1.3164c4.7458 2.2717 3.0443 3.2072-5.8333 3.2072-6.4196 0-8.4796-0.31511-8.1717-1.25 0.22642-0.6875 1.4164-1.3974 2.6445-1.5776s2.4026-0.85516 2.61-1.5c0.86514-2.6891 1.2718-31.144 0.47505-33.239-0.47673-1.2539-1.8089-2.4268-2.9603-2.6065-1.1514-0.17963-2.1882-0.77661-2.3039-1.3266-0.12066-0.57349 2.7752-1.1059 6.7896-1.2483l7-0.24826 6.5 14.475c3.575 7.9611 6.7847 14.485 7.1327 14.498 0.70229 0.026 12.867-26.523 12.867-28.082 0-1.497 14.249-0.67089 14.753 0.85541 0.23273 0.70383-0.40957 1.25-1.47 1.25-3.8735 0-4.2833 1.7823-4.2833 18.629 0 13.42 0.27197 16.501 1.5714 17.8 0.86428 0.86429 2.2518 1.5714 3.0833 1.5714s1.3507 0.48375 1.1536 1.075c-0.19708 0.59125-0.68458 1.0412-1.0833 1-0.39875-0.0412-4.55-0.075-9.225-0.075-8.6017 0-10.886-1.1422-6-3 2.4986-0.94999 2.5-0.95787 2.5-14.642 0-7.5303-0.16226-13.504-0.36058-13.275-0.19832 0.22917-3.3912 7.1667-7.0953 15.417-3.7041 8.25-7.0709 15.357-7.4818 15.792s-1.1913 0.21081-1.7342-0.5zm37.946-0.15316c-0.29114-0.47343 0.64914-1.8234 2.0895-3 1.6434-1.3424 4.5028-6.6089 7.6769-14.139 2.7819-6.6 6.1018-14.475 7.3774-17.5 1.2757-3.025 2.5893-6.2875 2.9192-7.25 0.9545-2.7848 3.3071-2.035 4.7066 1.5 1.3148 3.321 10.642 24.83 14.098 32.51 1.0543 2.343 2.8036 4.8137 3.8874 5.4906 3.5239 2.2007 2.1209 2.7495-7.0295 2.7495-8.7367 0-11.845-1.2478-6.4694-2.597 2.7294-0.68505 2.6983-1.9894-0.18292-7.653-1.3385-2.6312-1.7231-2.75-8.8981-2.75-7.1135 0-7.5488 0.13079-8.4663 2.5441-2.2262 5.8553-2.238 7.2402-0.068 7.929 1.1466 0.36392 2.0847 1.043 2.0847 1.509 0 1.1318-13.049 1.7566-13.726 0.65716zm25.197-19.729c-1.1066-3.4864-4.6177-11.099-4.9552-10.744-0.17406 0.18321-1.4549 3.1456-2.8464 6.5831l-2.5299 6.25h5.4973c5.1206 0 5.4519-0.14319 4.8342-2.0893zm60.996 20.042c-0.44102-0.71929 1.073-3.1475 1.894-3.0377 3.6516 0.48869 3.6382 0.55424 3.6382-17.817v-17.902l-3.075-1.072c-5.7863-2.0171-2.08-3.1242 10.384-3.1017 17.792 0.0321 22.691 2.7172 22.691 12.438 0 2.1977-0.80825 4.1078-2.3772 5.6179l-2.3772 2.288 3.3772 3.1851c2.8441 2.6823 3.3772 3.8811 3.3772 7.5945 0 4.7196-1.7595 8.0707-5.3013 10.097-2.2055 1.2616-31.551 2.8185-32.231 1.71zm26.521-5.7424c2.2349-1.8097 3.0853-7.6622 1.4887-10.246-1.0656-1.7242-6.9682-3.9643-10.446-3.9643h-3.0321v16h4.8892c3.2082 0 5.6493-0.61549 7.1-1.7902zm-1.6241-20.282c2.5779-2.0278 3.2995-5.0317 2.0137-8.3826-0.84965-2.2141-5.6338-4.5448-9.3292-4.5448h-3.0497v15h3.8651c2.3961 0 4.8666-0.78775 6.5-2.0726zm23.633 24.939c1e-3 -0.89835 0.79582-1.8409 1.7658-2.0945 2.0169-0.52742 2.9298-2.3353 12.257-24.272 3.7418-8.8 7.3563-16 8.0322-16 1.5857 0 1.7679 0.35296 9.0339 17.5 8.0308 18.952 8.6293 20.117 11.626 22.639 1.3981 1.1766 2.304 2.5266 2.0131 3-0.6639 1.0805-17.726 0.50681-17.726-0.59606 0-0.44544 0.9-1.0452 2-1.3329 2.4179-0.6323 2.6021-3.6453 0.47432-7.7599-1.491-2.8832-1.7025-2.9503-9.2991-2.9503h-7.7734l-1.2009 3.321c-1.6957 4.6893-1.4998 6.4494 0.79911 7.179 3.934 1.2486 1.8853 2.3413-5.0022 2.6679-5.9479 0.28206-7.0019 0.0861-7-1.3013zm23.223-23.717-2.8192-6.2107-2.3172 5.2807c-1.2744 2.9044-2.5279 5.817-2.7854 6.4724-0.48883 1.2441 8.4617 2.3556 9.971 1.2382 0.42351-0.31351-0.49864-3.3648-2.0492-6.7807zm31.1 19.601c-1.0131-8.13-1.0181-8.0175 0.37582-8.4821 0.65796-0.21932 2.1249 1.4214 3.2598 3.6461 4.537 8.8932 17.044 9.5769 17.044 0.93161 0-2.8591-2.1369-5.0042-10.258-10.298-9.6544-6.2928-11.516-10.366-8.2778-18.116 2.1339-5.1072 7.234-7.0782 14.455-5.5863 4.0352 0.83373 5.7693 0.82847 6.7924-0.0206 0.82042-0.68089 1.7308-0.77457 2.2599-0.23256 1.2122 1.2416 1.7509 13.786 0.61883 14.408-0.50068 0.275-1.9068-1.3-3.1246-3.5-1.9594-3.5395-7.0772-7.3552-9.9651-7.4297-0.55-0.0142-2.0768 0.80217-3.393 1.8141-4.1537 3.1937-2.3164 6.2508 7.8747 13.103 4.9233 3.3104 9.4165 6.8879 9.9849 7.9499 1.3118 2.4512 1.3393 9.6224 0.0461 12.039-1.8369 3.4324-7.4063 6.0236-12.946 6.0236-2.8587 0-6.1164-0.49169-7.2393-1.0926-1.4765-0.79019-2.3441-0.79019-3.1343 0-2.4161 2.4161-3.6028 1.0163-4.3722-5.1574zm126.98 4.9335c-0.58955-0.95411-0.62126-0.92763 2.9457-2.4596l2.75-1.181v-35.005l-2.5-0.62746c-1.375-0.3451-2.5-1.2537-2.5-2.019 0-1.0911 2.0511-1.3916 9.5-1.3916 7.7778 0 9.5 0.27193 9.5 1.5 0 0.83945-0.89164 1.5-2.0248 1.5-3.2809 0-4.0461 4.158-3.7506 20.382l0.27534 15.118h8.1556c7.6493 0 8.3166-0.17391 10.75-2.8015 1.4269-1.5408 2.5944-3.2283 2.5944-3.75s0.86462-0.94848 1.9214-0.94848c1.8714 0 1.877 0.15741 0.21592 6.048l-1.7055 6.048-17.812 0.20204c-9.7963 0.11112-18.039-0.1654-18.316-0.61449zm72.693-0.72067c1e-3 -0.8574 0.95757-1.6092 2.1624-1.6999 1.188-0.0895 2.5371-0.74775 2.9981-1.4628 0.46092-0.71505 0.72641-8.7195 0.58998-17.788l-0.24806-16.488-2.75-1.3169c-4.5398-2.1741-3.15-3.2078 4.3127-3.2078h7.0627l3.0097 6.75c6.9291 15.54 10.224 22.25 10.925 22.25 0.40946 0 1.2488-1.4625 1.8651-3.25s3.4729-8.2947 6.3478-14.461l5.2272-11.211 6.75-0.0395c5.1185-0.0299 6.75 0.29689 6.75 1.3521 0 0.76538-1.125 1.674-2.5 2.019l-2.5 0.62746v35.011l2.4029 0.91357c5.5922 2.1261 3.6896 3.0369-6.3438 3.0369-9.5748 0-12.721-1.0344-7.809-2.5674 1.2375-0.3862 2.5806-1.204 2.9847-1.8174s0.74158-6.9528 0.75-14.088c0.018-15.244 0.0983-15.279-7.9847 3.4725-2.9635 6.875-5.9366 13.332-6.6069 14.348-1.1607 1.76-1.2921 1.7359-2.7623-0.50796-0.84901-1.2958-4.0827-7.9773-7.1859-14.848s-5.9785-12.85-6.3895-13.288c-1.0372-1.1047-1.0036 21.274 0.0361 24.046 0.49455 1.3183 1.6855 2.25 2.8763 2.25 1.1177 0 2.0322 0.64073 2.0322 1.4238 0 1.086-1.8987 1.5012-8.0024 1.75-6.6748 0.27204-8.002 0.0711-8-1.211zm63 0c1e-3 -0.85744 0.95742-1.6091 2.1623-1.6999 1.188-0.0895 2.5311-0.74775 2.9847-1.4628 0.45357-0.71505 0.83156-8.5226 0.83998-17.35 0.01583-16.591-0.40585-18.45-4.1847-18.45-0.99 0-1.8-0.675-1.8-1.5 0-1.2333 1.7778-1.5 10-1.5 7.8182 0 10 0.3 10 1.375 0 0.75625-1.35 1.645-3 1.975l-3 0.6v35.023l7.5 3.4393-3.5 0.27049c-12.917 0.99824-18.004 0.79471-18.002-0.72017zm36.415 1.1205c-1.017-1.0278-0.19015-1.9651 2.5877-2.9335l3-1.0458v-35.104h-2.4349c-4.5278 0-7.353 1.7714-8.6806 5.4428-2.1166 5.8532-3.8845 4.5139-3.8845-2.9428v-6.5h38.095l-0.29771 6.25c-0.32459 6.814-1.514 7.7542-3.7105 2.933-1.3798-3.0285-5.2193-5.183-9.2364-5.183-1.7307 0-1.8508 1.1384-1.8508 17.552v17.552l3 1.0458c1.65 0.5752 3 1.4209 3 1.8794 0 0.83194-18.806 1.844-19.588 1.0541zm-651.41-1.5833c0-0.92555 0.93914-1.5 2.4522-1.5h2.4523l0.29774-16.25c0.16376-8.9375 0.13148-17.042-0.0717-18.011-0.20322-0.96851-1.4407-2.0298-2.75-2.3584-1.3093-0.3286-2.3806-1.2237-2.3806-1.9891 0-2.0724 22.537-1.9608 27.781 0.13763 4.4466 1.7792 7.2186 5.8698 7.2186 10.653 0 4.2339-2.1271 7.3226-6.6359 9.6358l-3.5112 1.8013 6.5977 7.9406c3.6287 4.3673 7.7146 8.3165 9.0798 8.776 4.0273 1.3555 1.7944 2.6646-4.5451 2.6646h-5.8966l-7.5884-9.5318c-4.1736-5.2425-8.0186-9.2659-8.5443-8.941-1.068 0.66006-1.2679 8.7059-0.30564 12.3 0.34267 1.2797 1.6865 2.7311 2.9863 3.2252 4.922 1.8713 2.3155 2.948-7.1367 2.948-7.7778 0-9.5-0.27193-9.5-1.5zm21.665-22.563c1.5371-0.58441 3.1345-1.5969 3.5498-2.25 0.96705-1.5209 0.98091-7.8492 0.0204-9.2877-2.3166-3.4695-10.757-4.6729-11.571-1.6497-0.25907 0.9625-0.53798 4.5625-0.61981 8l-0.14877 6.25h2.9873c1.643 0 4.245-0.47815 5.7821-1.0626zm368.34 23.16c0-0.4962 1.35-1.3728 3-1.948l3-1.0458v-35.066l-2.5-0.62746c-1.375-0.3451-2.5-1.2537-2.5-2.019 0-1.1358 3.217-1.3916 17.5-1.3916h17.5v5.5c0 6.2552-2.0655 7.6196-3.8379 2.5352-1.2271-3.5201-3.4914-4.2632-11.704-3.8413l-5.9583 0.30612v14l12.562 0.59703 1.5116-3.6177c2.405-5.756 3.8596-3.8594 3.8953 5.0787 0.027 6.7551-0.22437 7.9618-1.7184 8.2505-1.1642 0.22495-1.75-0.28892-1.75-1.5352 0-3.2277-2.139-4.2733-8.7421-4.2733h-6.3421l0.29207 7.75 0.29206 7.75 6.5752 0.29171c8.028 0.35615 11.479-0.84575 13.716-4.7764 1.8017-3.1662 4.2087-4.041 4.2087-1.5297 0 0.81711-0.54333 3.5171-1.2074 6l-1.2074 4.5144h-18.293c-10.206 0-18.293-0.39882-18.293-0.90217zm135.24-0.32025c0.22411-0.67233 1.4991-1.4797 2.8333-1.7941l2.4259-0.57172 0.27471-16.824c0.28575-17.499-0.12981-19.588-3.8972-19.588-1.0327 0-1.8776-0.675-1.8776-1.5 0-1.2333 1.7778-1.5 10-1.5s10 0.26667 10 1.5c0 0.825-0.81 1.5-1.8 1.5-3.8005 0-4.2 1.8312-4.2 19.252v16.852l3 1.0458c5.4679 1.9061 3.1218 2.8502-7.0833 2.8502-7.5009 0-9.979-0.31308-9.6759-1.2224zm160.76 0.32025c0-0.4962 1.35-1.3728 3-1.948l3-1.0458v-34.908l-3-1.0458c-6.7631-2.3576-2.9904-3.1498 15-3.1498h18v5.5c0 6.2552-2.0655 7.6196-3.8379 2.5352-1.2271-3.5201-3.4914-4.2632-11.704-3.8413l-5.9583 0.30612-0.58762 14.5h6.5948c6.5917 0 6.5955-2e-3 8.0572-3.5 2.3796-5.6953 3.4356-4.1585 3.4356 5 0 6.2422-0.3402 8.5-1.2808 8.5-0.70442 0-1.7903-1.35-2.4131-3-1.1003-2.9151-1.3188-3-7.7192-3h-6.5869v16l6.75-0.0136c9.0854-0.0184 10.869-0.6345 13.32-4.6 1.1511-1.8625 2.7312-3.3863 3.5113-3.3863 1.7032 0 1.7258 0.46836 0.33558 6.9508l-1.0829 5.0492h-18.417c-10.28 0-18.417-0.3986-18.417-0.90217zm45 0.5176c0-0.31024 1.35-1.2622 3-2.1154l3-1.5514v-34.911l-2.5-0.62746c-1.375-0.3451-2.5-1.2537-2.5-2.019 0-2.1039 22.307-1.9425 28.639 0.20716 10.52 3.5718 14.776 9.2833 14.798 19.861 0.0192 9.2196-2.5666 14.356-9.1854 18.247-4.5473 2.673-5.4076 2.8078-20.002 3.1329-8.3875 0.18686-15.25 0.0859-15.25-0.22432zm27.383-5.0023c5.2962-2.2129 8.0243-6.9593 8.3862-14.591 0.39965-8.4266-2.2394-13.493-8.7357-16.772-4.9535-2.5002-11.534-2.9945-12.328-0.92594-0.73542 1.9165-0.90939 31.538-0.19204 32.698 0.8934 1.4456 9.0513 1.1861 12.87-0.40927zm-262.61-103.24c-0.15144-19.012 0.0423-34.764 0.43063-35.004 0.38829-0.23964 2.4133 0.32608 4.5 1.2571 4.6718 2.0845 9.3469 2.0189 10.935-0.1535 0.99352-1.3587 1.5873-1.4305 3.5266-0.42627 1.2826 0.66415 3.1664 1.9369 4.1862 2.8284 1.7461 1.5263 1.8417 1.4751 1.6393-0.8785-0.348-4.0467-0.17722-4.1337 3.9666-2.0196 5.0735 2.5883 19.743 2.9574 20.678 0.52032 0.83545-2.1772 3.4316-1.8341 6.8563 0.9059 2.8749 2.3001 2.9249 2.4731 1.25 4.3238-1.4379 1.5888-1.7446 3.87-1.7446 12.973v11.046l3.5422 3.8672c3.1267 3.4136 3.332 3.9456 1.75 4.5356-11.338 4.2283-13.91 5.2633-14.619 5.8816-1.9892 1.7344 11.14 11.002 18.327 12.938 3.2045 0.86281 3.2378 3.2173 0.0523 3.7035-1.3462 0.20545-3.1816 1.0378-4.0787 1.8496-2.679 2.4245-5.2353 1.716-10.491-2.9076-6.3574-5.593-11.002-13.348-13.11-21.887-1.2824-5.197-2.0703-6.7294-3.4598-6.7294-1.6199 0-1.8298 1.2457-2.1063 12.502-0.34493 14.04-0.71227 13.473 7.4983 11.567 6.5329-1.5165 4.0859 1.8439-3.5762 4.9111-3.7239 1.4907-7.8029 3.68-9.0644 4.8652-3.1415 2.9513-4.0185 2.7333-6.0374-1.5004-1.8481-3.8755-1.1713-5.2954 2.5404-5.3295 1.5114-0.0139 1.6737-2.4064 1.7304-25.515 0.0723-29.477-0.0946-29.894-7.4047-18.49-2.4714 3.8556-4.4934 7.2486-4.4934 7.54 0 0.29141 1.7505 2.1993 3.8901 4.2398 8.6114 8.2127 7.5595 21.384-1.8901 23.665-2.0489 0.4947-2.8074 0.057-4.2035-2.4259-2.9974-5.3306-3.7965-3.692-3.7965 7.7853v10.815l-6.9493 3.3139zm14.828 5.0701c1.016-4.048-0.27776-9.3305-3.2346-13.207l-2.7272-3.5756 2.7099-8.0815c1.4904-4.4448 2.6962-8.3515 2.6794-8.6815-0.0168-0.33-1.493-0.555-3.2805-0.5l-3.25 0.1-0.27437 17.426c-0.29106 18.486-0.16328 19.027 4.5053 19.059 1.5648 0.0107 2.4224-0.74743 2.872-2.539zm33.303-1.1654c1.9769-1.4959 4.4746-3.5281 5.5503-4.5162 1.9117-1.7559 1.8835-1.782-1.25-1.1553-2.0881 0.41762-3.2059 0.24892-3.2059-0.48381 0-0.66667-1.8333-1.125-4.5-1.125-3.1561 0-4.5 0.4115-4.5 1.3779 0 1.8752 2.871 8.6221 3.669 8.6221 0.3532 0 2.2597-1.2239 4.2366-2.7197zm0.89918-15.03-0.30479-4.75-6.4052-0.31946c-9.9374-0.49563-10.683-0.11171-10.255 5.2784l0.36117 4.5411h16.908zm0.19521-13.25v-5h-17v10h17zm110.98 55.977c-1.0875-1.0875-1.9842-2.5398-1.9926-3.2273-0.0455-3.7125-1.2546-3.8414-16.055-1.7114-14.597 2.1006-19.995 3.1378-23.185 4.4548-1.3706 0.56586-2.0831-0.0594-3.25-2.8522-2.1813-5.2206-1.9695-6.7985 0.81868-6.0987 1.4717 0.36937 3.089-0.0784 4.4457-1.231 2.7159-2.3072 11.382-16.701 14.313-23.773l2.2434-5.4127 4.8422 2.4537c2.6632 1.3495 4.8422 2.6979 4.8422 2.9964 0 0.29849-1.6272 2.2034-3.616 4.2332s-6.4548 7.2904-9.9244 11.69l-6.3084 8 7.6744 0.31802c9.3611 0.38793 20.174-0.63887 20.174-1.9157 0-0.51617-1.768-3.8486-3.9288-7.4054-2.1608-3.5568-3.5003-6.7318-2.9766-7.0554 1.0982-0.67874 8.9852 5.6908 14.217 11.481 4.1076 4.5466 5.5882 10.028 3.6745 13.604-1.7659 3.2996-3.6938 3.7651-6.0084 1.4505zm-251.08 0.27268c-0.0557-0.4125-0.0147-8.5687 0.0911-18.125l0.19231-17.375-2.8411 2.6997c-4.0129 3.8132-14.877 11.55-16.218 11.55-2.0947 0-1.1354-1.488 5.1576-8.0004 7.8381-8.1114 12.648-14.134 16.172-20.25l2.7372-4.75-9.345-0.19207c-5.1398-0.10564-10.47-0.1823-11.845-0.17035-2.3368 0.0203-3.9492-1.1481-3.9847-2.8876-8e-3 -0.4125 6.0043-0.75 13.362-0.75h13.377l2.1232-4.9354c1.1677-2.7145 2.1231-5.6129 2.1231-6.441 0-2.5786 1.9106-2.8583 6.5351-0.95664 4.6088 1.8952 5.9678 4.688 2.7149 5.5792-0.9625 0.2637-2.5629 1.8912-3.5565 3.6166l-1.8065 3.1372h11.442c11.101 0 11.49-0.0744 13.08-2.5 2.2287-3.4014 4.3868-3.138 8.9997 1.0983 2.8542 2.6212 3.56 3.8037 2.6179 4.3859-0.70941 0.43844-8.7679 0.81132-17.908 0.82861-9.1398 0.0173-17.293 0.0721-18.118 0.1217-1.2424 0.0748-6 6.0016-6 7.4746 0 0.24041 4.759 0.4371 10.576 0.4371 9.1972 0 10.79-0.25066 12.222-1.9231 2.1071-2.4609 2.436-2.4318 7.3134 0.64717 4.0053 2.5284 4.0416 2.6035 2.2301 4.6126-2.1649 2.4011-2.007 0.74624-2.1934 22.994l-0.14806 17.677-3.1536 1.5732c-4.5043 2.247-6.1749 1.9727-8.6882-1.4268-1.2199-1.65-2.8297-3-3.5773-3-0.74761 0-2.4216-0.92494-3.7201-2.0554l-2.3608-2.0554 13.5 1.27v-12.159h-24v9.5248c0 9.3041-0.0594 9.5474-2.5651 10.5-3.0751 1.1692-4.3998 1.2349-4.5362 0.22525zm31.101-27.25v-4h-24v8h24zm0-12v-4h-24v8h24zm328.64 37.7c-0.56343-2.2449-6.1241-5.7001-9.1735-5.7001-0.80634 0-1.4661-0.70329-1.4661-1.5629 0-1.0468-0.74299-1.4596-2.25-1.25-1.6905 0.23507-2.3295-0.2466-2.5696-1.9371-0.30689-2.1608-0.71311-2.25-10.25-2.25h-9.9304v2.9743c0 2.2823-0.68648 3.3293-2.9503 4.5-1.6227 0.83912-3.1977 1.5257-3.5 1.5257s-0.54966-8.325-0.54966-18.5 0.24293-18.5 0.53984-18.5 2.304 0.9 4.4602 2c5.074 2.5886 21.696 2.9557 22.638 0.5 0.78433-2.0439 2.5955-1.8846 6.8045 0.59878 3.7483 2.2115 4.5648 4.3006 2.0572 5.2628-1.1994 0.46025-1.5 2.646-1.5 10.907 0 6.2581-0.43914 10.771-1.1138 11.445-1.5067 1.5067 9.7974 2.9756 12.035 1.5638 1.3716-0.86519 1.5784-4.3879 1.5784-26.887v-25.891l-22.453-0.26967c-21.518-0.25844-23.946-0.58487-24.033-3.2303-9e-3 -0.275 10.302-0.35738 22.914-0.18306 22.317 0.30846 22.96 0.26171 24.036-1.75 1.5168-2.8342 3.899-2.5323 8.0358 1.0185l3.5 3.0042-2.2367 1.7052c-2.2117 1.6861-2.2397 2.0236-2.5 30.166l-0.26326 28.461-3.3979 2.2893c-4.451 2.9988-7.7082 2.9948-8.4626-0.0106zm-15.64-25.2v-8.5h-20v17h20zm-146 1.0889c0-0.7761 1.2375-2.4636 2.75-3.75 6.7553-5.7454 14.124-16.943 16.184-24.594 0.62862-2.3345 1.5383-4.2445 2.0215-4.2445 1.8339 0 10.044 3.9706 10.044 4.8575 0 0.51071-0.67626 1.1881-1.5028 1.5052-0.82654 0.31718-2.739 2.5102-4.25 4.8734-5.1984 8.1304-8.4478 11.706-15.657 17.228-7.3979 5.6664-9.5898 6.6092-9.5898 4.125zm54.63-6.9973c-6.9212-6.8197-10.438-12.683-13.1-21.84l-1.6462-5.6629-6.6816-0.29436c-5.2484-0.23123-6.7486-0.64613-6.994-1.9342-0.26315-1.3811 0.75364-1.6558 6.445-1.7412 4.9051-0.0736 6.9889-0.51496 7.6018-1.6102 1.156-2.0657 3.3883-1.8924 7.377 0.57277 3.9949 2.469 4.3197 4.4628 0.86803 5.3291-3.218 0.80766-3.149 1.9711 0.55605 9.3856 3.5 7.0041 9.2986 11.861 17.694 14.822 5.9442 2.0961 6.6313 3.7047 2.2368 5.2366-1.6572 0.57772-3.2804 1.7468-3.607 2.5978-1.1292 2.9428-4.272 1.5216-10.75-4.861zm57.88-15.423c-0.2805-0.73248-0.51001-1.52-0.51001-1.75 0-0.23001 8.6625-0.41415 19.25-0.4092l19.25 9e-3 5.4084-6.518 4.2468 4.2157c2.3357 2.3186 4.0357 4.4268 3.7777 4.6848-0.25799 0.25799-11.819 0.61093-25.691 0.78431-20.303 0.25376-25.321 0.0555-25.732-1.0166zm-766.51-73.166c0-1.9967 0.5848-2.0024 205.57-2.0024 195.25 0 205.56 0.0879 205.24 1.75-0.31947 1.6589-11.02 1.7631-205.57 2.0024-204.74 0.25178-205.24 0.24751-205.24-1.75zm585.67 1.3349c-3.3331-3.3331-3.1795-3.3373 122.9-3.3373 117.15 0 123.56 0.091 123.24 1.75-0.31844 1.6537-7.0842 1.764-122.9 2.0039-67.411 0.13966-122.87-0.0478-123.24-0.41667zm-108.67-2.0247c-19.87-3.2991-39.932-12.756-52.615-24.803-9.436-8.9625-17.676-23.982-20.028-36.509-5.4823-29.19 9.891-56.359 37.442-66.172 9.057-3.2258 27.372-3.6824 38.233-0.95326 37.256 9.3618 55.8 41.925 40.755 71.565-8.772 17.282-28.095 28.672-48.35 28.502l-6.9361-0.0585 7.019-2.763c22.586-8.8912 34.503-24.995 34.47-46.58-0.0299-19.454-12.927-37.125-31.708-43.447-7.372-2.4813-20.045-2.7981-27.931-0.69812-14.835 3.9498-28.071 16.09-34.461 31.605-1.904 4.6234-2.2646 7.3329-2.2623 17 3e-3 12.511 1.4292 17.847 7.6076 28.463 6.603 11.345 22.43 24.388 36.364 29.966 19.739 7.9019 45.886 8.6335 64.401 1.8019 28.686-10.585 48.356-37.344 48.315-65.731-0.0162-11.285-1.5941-18.808-5.9499-28.366-2.7423-6.0177-5.0432-9.091-11.653-15.566-4.9342-4.8333-11.038-9.6125-15.224-11.92-9.6711-5.332-26.89-11.815-39.988-15.057-23.758-5.8797-27.24-6.8702-34.018-9.6776-13.355-5.5308-19.462-13.506-19.462-25.413 0-11.516 6.3299-20.083 19.549-26.459 8.1646-3.9377 16.432-5.7982 29.431-6.6232 18.623-1.1819 34.442 1.9728 44.764 8.9273l4.7359 3.1908-0.33562-6.8587c-0.42474-8.68 0.29631-11.677 2.8094-11.677 1.4094 0 2.0784 0.88361 2.4609 3.25 0.42497 2.6293 2.5653 41.33 2.5653 46.385 0 0.75094-0.86278 1.3653-1.9173 1.3653-1.3549 0-2.4283-1.338-3.6595-4.5619-2.1713-5.6855-7.9804-14.062-13.06-18.831-5.6857-5.3386-16.762-10.547-25.208-11.855-20.472-3.1688-43.155 6.4934-43.155 18.382 0 9.1944 8.3259 15.254 27 19.651 4.675 1.1008 12.775 3.0127 18 4.2486 36.12 8.544 60.84 23.747 72.251 44.433 6.3017 11.424 7.9431 18.112 8.4758 34.532 0.64334 19.831-2.1623 30.762-11.928 46.471-3.9981 6.4311-17.654 20.051-24.889 24.824-11.205 7.392-26.956 13.418-40.909 15.65-6.2415 0.99863-25.802 1.2306-31 0.36766zm245.55-60.563c-0.2118-0.6875-0.65475-2.4815-0.98433-3.9867l-0.59924-2.7367-133.47 0.018-0.31732-3.0753c-0.24043-2.3301 0.29897-3.5601 2.2259-5.0759 1.3988-1.1003 3.0294-3.6639 3.6235-5.6969 0.73536-2.5162 0.9825-22.374 0.77407-62.196-0.25357-48.446-0.54986-58.867-1.724-60.634-2.692-4.0509-6.8376-5.5772-16.94-6.2369-9.0155-0.58871-9.6627-0.77579-9.9615-2.8796l-0.31955-2.25h145.82l-0.0245-2.75c-0.0763-8.571 0.31243-10.25 2.3735-10.25 1.1173 0 2.2146 0.5625 2.4386 1.25 0.22397 0.6875 1.1207 13.4 1.9927 28.25s1.6871 28.35 1.8114 30c0.17571 2.3332-0.21859 3.0619-1.7741 3.2787-1.6555 0.23069-2.5583-1.1472-5.2416-8-4.2812-10.934-10.258-19.891-16.052-24.055-9.6026-6.9025-15.217-7.7236-52.813-7.7236h-30.24l1.6734 3.25c1.4105 2.7395 1.7261 7.3732 2.0092 29.5l0.33583 26.25 13.664-0.0435c16.016-0.0511 20.884-0.82405 25.634-4.0702 3.9103-2.6723 6.6933-8.2142 9.983-19.879 1.468-5.2054 2.6372-7.5936 3.8299-7.8233 1.5976-0.30772 1.7169 2.2495 1.7169 36.816s-0.11925 37.124-1.7169 36.816c-1.2092-0.23288-2.3721-2.694-3.9329-8.3233-4.0696-14.678-8.0348-20.108-16.445-22.52-1.8654-0.535-10.032-0.97273-18.148-0.97273h-14.757v22.864c0 20.833-0.64038 29.475-2.5506 34.42-0.65499 1.6955 1.2721 1.7693 39.181 1.5 39.21-0.2785 39.966-0.32211 45.698-2.6344 10.292-4.1518 17.49-13.277 25.556-32.399 1.2755-3.0241 2.6226-4.75 3.7073-4.75 1.5164 0 1.637 0.90733 1.0968 8.25-0.33382 4.5375-1.1639 17.588-1.8447 29-1.1338 19.008-1.3917 20.75-3.072 20.75-1.0088 0-2.0075-0.5625-2.2193-1.25zm-624.55-9.04c0-2.3174 0.35224-2.442 8.72-3.0852 10.286-0.79067 14.954-2.7955 17.752-7.6248 1.9747-3.4083 2.0278-5.0472 2.0278-62.544 0-65.73 0.3456-62.403-6.8359-65.811-1.9492-0.92494-7.514-1.94-12.624-2.3027-8.5385-0.60609-9.119-0.78639-8.8392-2.7454 0.29915-2.0945 0.35635-2.0971 53.299-2.398 32.877-0.18684 57.058 0.10752 63.689 0.77531 26.339 2.6526 43.135 10.935 49.381 24.349 4.231 9.0872 2.7554 16.971-4.7043 25.133-2.6042 2.8494-7.3519 6.6004-10.55 8.3356-7.7256 4.191-4.3398 4.1092 7.6844-0.18575 17.247-6.1604 27.288-7.8482 47.5-7.9846 9.9-0.0668 19.601 0.22024 21.558 0.63786l3.5581 0.75932 18.003-35.757c18.371-36.489 20.686-39.985 22.029-33.269 0.82125 4.1063 4.097 6.1364 11.122 6.8929l5.7082 0.61465 0.67258 4.5c0.61096 4.0877 3.5284 10.887 14.804 34.5 13.34 27.936 17.045 35.792 17.045 36.142 0 0.217 2.7 6.0396 6 12.939 3.3 6.8996 6 12.855 6 13.233s-1.9125 1.7215-4.25 2.9838-7.1434 4.9329-10.68 8.157l-6.4298 5.8619-6.9772-7.4711c-17.019-18.224-37.989-29.613-65.833-35.755-2.6172-0.57732-2.9769 0.0208-18.25 30.345-17.504 34.753-17.866 35.978-12.281 41.563 2.8924 2.8924 4.1554 3.3803 10.25 3.9601 3.8231 0.36367 7.6261 0.75285 8.4511 0.86482 0.825 0.11198 1.5 1.0974 1.5 2.1899 0 1.9313-0.82394 1.9936-29.75 2.2512l-29.75 0.26488v-2.3772c0-2.1456 0.55345-2.4422 5.6804-3.0448 6.6191-0.77794 11.087-3.2588 15.157-8.4158 3.7092-4.6997 35.571-68.117 34.674-69.014-1.2751-1.2751-16.857-1.399-29.261-0.23282-12.164 1.1436-30.707 5.1111-32.563 6.967-0.57434 0.57434 0.93471 1.8979 3.9408 3.4565 6.4219 3.3296 13.827 10.67 17.167 17.018 2.3199 4.4087 2.6863 6.284 2.6596 13.613-0.0262 7.1843-0.47417 9.4724-2.894 14.782-5.4887 12.043-17.955 20.726-37.29 25.975l-9.7712 2.6522-136.5 0.71611zm132.87-9.9939c8.7035-2.5902 15.848-6.562 20.602-11.453 5.9903-6.1632 7.8711-10.414 8.3386-18.847 0.33632-6.0674 0.0318-7.7896-2.1218-12-6.9639-13.614-24.569-22.483-48.34-24.35-6.5158-0.5119-17.922-1.2134-25.347-1.5588-18.428-0.85732-19-0.99535-19-4.5862v-2.9205h23.772c20.199 0 24.791-0.28267 30.555-1.8809 25.845-7.1667 31.307-31.958 9.4465-42.876-8.89-4.4399-16.62-5.2434-50.445-5.2434-29.632 0-31.5 0.10595-30.862 1.75 2.2483 5.7883 2.6218 16.289 2.3129 65.031-0.29676 46.825-0.52487 53.203-2.0402 57.049l-1.7061 4.3298 39.734-0.42277c32.589-0.34674 40.699-0.7101 45.103-2.0206zm167.46-59.466c-3.0516-6.4625-8.425-17.756-11.941-25.096-3.5159-7.3404-6.3925-13.554-6.3925-13.809s-3.1512-7.0001-7.0026-14.99c-3.8514-7.9902-7.286-15.657-7.6324-17.037-0.52274-2.0828-2.731 1.6799-12.997 22.146-6.8022 13.561-12.368 24.839-12.368 25.063s3.9375 1.603 8.75 3.0637c17.639 5.3539 37.961 16.698 48.75 27.212 2.75 2.6801 5.3109 4.9455 5.6909 5.0344 0.37998 0.0888-1.8059-5.126-4.8575-11.588zm-153.33-12.25c-4.947-2.0758-7-2.4254-7-1.1921 0 0.44437 1.9125 1.2772 4.25 1.8507 6.6587 1.6337 7.6482 1.3967 2.75-0.65861zm59-113.37c-12.496-3.6324-21.007-11.94-34.455-33.632-13.283-21.426-17.866-26.95-24.889-30.002-2.462-1.07-9.2418-2.2858-16.631-2.9824-6.8613-0.64683-12.824-1.3916-13.25-1.655-0.4262-0.26342-0.77492-1.3021-0.77492-2.3081 0-1.7115 1.5924-1.8566 24.75-2.2552 23.687-0.40768 25.07-0.53998 32.194-3.0789 17.898-6.3789 28.317-19.347 28.367-35.309 0.052-16.436-11.445-27.826-30.811-30.526-13.096-1.8258-28.744 1.9846-41.086 10.005-12.202 7.9288-21.427 20.649-24.784 34.175-2.3848 9.6084-2.4081 71.294-0.0296 78.274 2.0268 5.9484 7.1398 9.1667 16.15 10.166 5.2329 0.58009 6.25 1.0023 6.25 2.5946 0 1.8238-1.1485 1.9018-28 1.9018h-28l-0.20418-5.5-1.0103 3.1374-1.0103 3.1375-27.275 0.96941-2.784-3.1222c-3.6555-4.0995-5.6404-11.027-6.3958-22.321l-0.61522-9.1988-2.844 4.2936c-2.4999 3.7742-9.2804 10.61-15.687 15.815-3.7991 3.0866-20.528 10.574-27.674 12.386-8.8706 2.2493-27.811 2.2894-39 0.0827-22.787-4.494-38.831-14.481-45.709-28.452-3.0898-6.2762-3.2915-7.3308-3.2915-17.207 0-9.4779 0.26417-11.017 2.6645-15.521 11.355-21.309 40.025-30.689 84.485-27.642 15.921 1.091 40.638 4.2179 45.747 5.7875 1.8061 0.55486 1.8688 0.0624 1.308-10.281-0.91472-16.871-4.2259-25.07-14.121-34.965-11.055-11.055-22.585-14.999-41.084-14.055-28.933 1.4777-42.5 10.885-42.5 29.47v5.4578l-4.6632-0.63916c-6.4399-0.88269-10.597-3.537-12.03-7.6821-0.65645-1.8978-1.219-7.9742-1.25-13.503l-0.05644-10.053 4.75-1.0674c2.6125-0.58706 9.475-2.889 15.25-5.1154 13.934-5.372 22.836-7.1918 38.638-7.8992 29.534-1.322 50.744 5.0523 65.418 19.66 6.7574 6.7273 10.354 12.238 13.489 20.668 1.6072 4.3223 1.8698 9.8219 2.3809 49.858 0.54693 42.848 0.67279 45.191 2.6323 49 1.4009 2.7228 3.4641 4.7184 6.4619 6.25 5.7001 2.9122 7.1402 2.8371 10.779-0.56206 2.3684-2.2124 3.1497-3.9716 3.6639-8.25 0.35949-2.9909 0.51494-30.493 0.34544-61.116-0.30257-54.665-0.3462-55.729-2.3981-58.5-3.1424-4.2438-6.8641-5.5726-17.109-6.1084-8.839-0.46234-9.3014-0.59853-9.3014-2.7396 0-2.2448 0.0786-2.2557 21.5-2.9859 16.404-0.55917 21.85-0.44239 22.977 0.49269 0.8122 0.67407 2.6532 3.6302 4.0912 6.5693 2.1116 4.3159 2.7243 7.3253 3.1857 15.647 0.3142 5.6666 0.78164 9.6771 1.0388 8.9122 0.25712-0.76486 1.1964-2.2916 2.0873-3.3927 11.034-13.638 20.73-20.151 37.812-25.397 7.989-2.4535 10.294-2.7071 24.807-2.7289 17.366-0.0261 23.523 1.0788 34.209 6.1384 8.2135 3.8889 16.405 11.928 19.857 19.489 2.482 5.4353 2.8682 7.4952 2.8647 15.282-5e-3 11.144-2.4004 17.831-9.2016 25.685-9.518 10.992-25.932 19.237-41.931 21.064-1.8685 0.21329-1.3406 0.93438 3.4978 4.7776 3.9235 3.1165 7.9737 7.9444 13.003 15.5 14.407 21.643 18.081 26.32 22.894 29.141 5.6375 3.3038 11.901 3.4903 18.543 0.55211 5.9272-2.6219 9.5461-8.6059 11.04-18.255 0.85442-5.52 1.4279-6.9707 2.6562-6.7185 1.2823 0.26325 1.5245 1.7059 1.335 7.9511-0.43818 14.44-6.8539 25.893-17.143 30.604-6.5614 3.0039-17.29 3.8182-24.125 1.8312zm-213.5-17.657c24.28-9.199 39.454-31.762 39.492-58.725l0.00755-5.25h-33.869c-25.769 0-35.947 0.36241-42.559 1.5154-14.39 2.5094-24.699 9.0121-29.744 18.761-1.6813 3.2491-2.1659 5.8596-2.1007 11.316 0.19429 16.257 12.808 29.489 32.331 33.916 9.7455 2.2098 28.662 1.4139 36.441-1.5334zm374.5 10.673c0-2.2213 0.44302-2.386 7.9872-2.9677 11.25-0.8675 15.421-3.3528 17.926-10.68 0.65815-1.925 1.8305-15.65 2.6052-30.5s2.1422-40.328 3.039-56.618c1.4742-26.78 1.4819-29.905 0.0804-32.615-2.0526-3.9694-7.1715-6.2568-17.577-7.8545-4.7086-0.72297-8.6316-1.3365-8.7176-1.3635-0.086-0.0269 0.079-0.94898 0.36663-2.049 0.50246-1.9214 1.364-2 21.929-2h21.406l6.6416 10.25c9.2018 14.201 12.966 20.064 28.906 45.03 7.6487 11.979 15.591 24.354 17.65 27.5 2.0588 3.1457 4.0567 6.3791 4.4398 7.1852 0.38305 0.80614 3.387 5.5287 6.6754 10.495 3.2884 4.9659 6.4304 10.5 6.9823 12.298l1.0034 3.2693 3.5779-5.832c1.9679-3.2076 4.0279-6.5875 4.5779-7.5109 0.55-0.9234 3.6685-5.8428 6.93-10.932 3.2615-5.0892 8.4752-13.303 11.586-18.253 3.1108-4.95 8.7673-13.905 12.57-19.899 3.8027-5.9947 7.814-12.379 8.914-14.187s4.6566-7.4786 7.9035-12.601c3.2469-5.1219 8.4038-13.258 11.46-18.081l5.5562-8.7686 22.04 0.26857c21.284 0.25936 22.04 0.33719 22.04 2.2686 0 1.8069-0.88078 2.062-9.1216 2.6423-12.18 0.85775-14.768 1.5201-17.805 4.5575-2.3147 2.3147-2.5724 3.3372-2.5672 10.187 9e-3 12.627 6.6043 108.06 7.5316 108.98 0.2545 0.2545 0.48354-1.7498 0.50898-4.4539 0.0415-4.4133 3.0874-10.957 29.75-63.917 19.377-38.489 30.28-59.106 31.362-59.306 1.1367-0.20952 1.8627 0.62492 2.3081 2.6528 0.76053 3.4627 4.5361 5.4163 10.313 5.3365 3.7709-0.052 3.804-0.0176 5.0231 5.2261 0.67496 2.9032 2.288 7.4861 3.5845 10.184 6.3493 13.214 12.043 25.25 18.404 38.906 3.8432 8.25 9.1103 19.5 11.705 25 23.25 49.29 22.303 47.607 28.221 50.129 1.7698 0.75412 4.7592 1.3711 6.643 1.3711 3.6999 0 5.4162 2.1102 3.2072 3.9435-0.89378 0.74176-9.8946 1.0046-28.191 0.82311-26.122-0.25908-26.878-0.32279-26.878-2.2666 0-1.7736 0.96212-2.1003 8.5-2.8864 4.675-0.4875 8.6154-0.97793 8.7565-1.0898 0.14108-0.11191-2.706-6.463-6.3269-14.114s-8.1633-17.285-10.094-21.41-5.114-10.875-7.0734-15c-3.3308-7.0124-7.9419-16.83-15.735-33.5-1.7998-3.85-5.3889-11.448-7.9758-16.885-2.5869-5.4368-5.1317-11.012-5.6552-12.389s-1.1021-2.3286-1.2857-2.1148-8.2981 16.301-18.032 35.75c-15.352 30.673-17.299 35.077-14.687 33.216 9.5753-6.8182 23.338-10.077 42.553-10.077h13.529l1.7107 3.75c0.94088 2.0625 1.8651 4.0297 2.0539 4.3715s-8.5625 0.83515-19.447 1.0963c-18.133 0.43509-20.446 0.69866-27.618 3.1476-10.387 3.5467-17.652 8.3451-22.438 14.821-4.1844 5.6615-14.234 24.728-14.234 27.005 0 0.74912 1.8432 2.5572 4.096 4.0179 3.314 2.1488 5.7958 2.7889 13 3.3524 8.506 0.66541 8.904 0.80255 8.904 3.0676v2.371h-38.441c-22.007 0-38.681-0.38894-39.003-0.90976-1.5663-2.5343 0.78838-3.8259 8.1025-4.4441 8.6767-0.73345 11.815-2.0032 14.752-5.9678 2.8882-3.8995 2.8372-9.8745-0.50456-59.178-1.5284-22.55-2.8074-42.987-2.8422-45.415l-0.06327-4.4151-4.85 7.9151c-2.6675 4.3533-7.1402 11.515-9.9392 15.915s-7.7589 12.275-11.022 17.5c-3.263 5.225-14.574 23.145-25.135 39.821-11.135 17.582-19.428 31.71-19.739 33.627-0.41489 2.5567-0.94043 3.2005-2.3183 2.8402-0.97997-0.25627-2.0274-1.6942-2.3276-3.1953s-5.3759-10.349-11.279-19.661c-5.9034-9.3126-13.109-20.757-16.013-25.432s-6.6513-10.394-8.328-12.708c-1.6767-2.3144-3.0486-4.4362-3.0486-4.7152 0-0.27896-2.5613-4.4604-5.6918-9.292-3.1305-4.8317-10.073-15.681-15.427-24.111l-9.7355-15.326-0.54488 4.3258c-1.1443 9.0841-4.807 85.062-4.4457 92.218 0.33538 6.6414 0.7117 7.8587 3.2479 10.506 2.9623 3.092 9.323 5.1017 16.147 5.1017 3.0142 0 3.4508 0.31632 3.4508 2.5v2.5h-60z" style="fill:#571a4f"/><g><path d="m508.48 257.41c-21.032-4.9519-35.051-13.349-46.177-27.657-10.944-14.074-15.637-28.029-15.554-46.25 0.13184-28.953 14.302-52.638 39.488-66.002 12.78-6.7812 22.338-8.8489 38.21-8.2657 12.181 0.44764 13.654 0.72644 22.533 4.2666 16.175 6.4488 26.718 14.632 35.705 27.713 9.387 13.663 13.431 28.006 12.764 45.269-0.47301 12.236-2.2832 19.563-7.4158 30.018-8.976 18.284-23.544 30.966-43.775 38.105-6.7019 2.3651-9.5752 2.7812-20.777 3.009-7.15 0.14541-13.9 0.0525-15-0.20652zm18.11-9.9918c4.861-3.2298 8.259-6.7734 11.426-11.916 2.1111-3.4278 2.4635-5.216 2.4635-12.5 0-8.0615-0.18499-8.7844-3.586-14.013-1.9723-3.0321-5.4578-7.9821-7.7457-11-4.5922-6.0575-5.025-7.9018-2.4098-10.268 1.6144-1.461 1.9627-1.4295 4.25 0.38413 1.3703 1.0866 6.427 4.6257 11.237 7.8647 11.03 7.427 17.311 9.0621 25.067 6.5253 8.2209-2.6889 14.728-8.1131 18.653-15.549 1.7201-3.2583 1.7505-3.819 0.36266-6.6846-2.1886-4.519-8.1239-10.538-13.409-13.598-10.329-5.9807-20.331-4.0224-34.915 6.8363-9.0482 6.737-10.972 7.3012-12.86 3.7725-0.79965-1.4942 0.14258-3.3531 4.9705-9.8065 9.1033-12.168 10.236-14.744 10.316-23.463 0.0544-5.9074-0.40286-8.3977-2.1532-11.728-2.4046-4.5744-8.5235-10.611-13.907-13.719-3.3403-1.9287-3.4023-1.9287-6.7745 0-5.2416 2.998-10.195 7.9064-13.287 13.166-2.4268 4.1286-2.8023 5.8026-2.754 12.28 0.0648 8.7097 0.75999 10.306 10.121 23.244 6.204 8.5748 6.3971 9.0166 4.7404 10.847-0.9499 1.0496-2.2286 1.9084-2.8416 1.9084-0.61299 0-5.1557-2.9564-10.095-6.5698-4.9393-3.6134-10.555-7.2555-12.48-8.0936-5.5915-2.4344-14.696-2.1283-20.326 0.68337-5.1178 2.556-12.465 9.7399-15.026 14.693-1.4996 2.8999-1.4472 3.211 1.2487 7.4072 3.9586 6.1618 6.9746 9.1334 12.663 12.477 4.1118 2.4167 6.0298 2.8978 11.44 2.8693 8.0363-0.0423 12.621-2.0396 23.707-10.329 4.5139-3.3751 8.6067-6.1366 9.095-6.1366s1.6884 0.88458 2.6668 1.9657c1.725 1.9061 1.6009 2.2089-4.095 9.9865-9.8355 13.43-10.694 15.34-10.778 23.961-0.0808 8.3304 1.0465 11.328 6.6727 17.744 4.0507 4.6195 10.492 9.3419 12.742 9.3419 0.94073 0 3.4607-1.163 5.6-2.5843zm-11.21-13.614c-2.5049-2.309-5.2209-5.4869-6.0354-7.062-1.9373-3.7462-1.9479-11.41-0.0223-16.019 1.6761-4.0115 10.701-16.668 11.909-16.701 1.1487-0.0312 9.7797 11.96 11.862 16.48 2.3453 5.0916 2.3454 10.893 3e-4 16.056-1.8881 4.1569-9.4123 11.444-11.816 11.444-0.73829 0-3.3918-1.8892-5.8968-4.1981zm-33.043-36.756c-6.4055-1.5275-15.358-9.4057-15.358-13.515 0-2.2564 7.4736-10.053 11.441-11.936 4.439-2.1064 11.11-1.9874 16.059 0.28661 4.3045 1.9777 16.529 10.857 16.456 11.953-0.0987 1.4769-15.752 11.589-19.864 12.832-2.4249 0.73312-4.6749 1.2869-5 1.2306s-2.0049-0.43951-3.7329-0.85157zm60.476-5.0241c-4.0336-2.7379-8.3917-5.8116-9.6848-6.8305l-2.351-1.8524 6.9661-5.1642c8.5146-6.3121 12.788-8.1748 18.753-8.1748 7.013 0 14.71 4.7654 18.063 11.184 1.3101 2.5075 1.1894 2.9618-1.8393 6.9238-4.3483 5.6883-10.587 8.8926-17.315 8.8926-4.6588 0-6.0958-0.56806-12.593-4.9781zm-23.746-6.4162c-1.6516-1.99-0.21614-4.7664 2.2793-4.4086 2.7754 0.39791 3.2813 3.3855 0.79828 4.7144-1.4521 0.77713-2.2442 0.69843-3.0776-0.30579zm-4.0296-19.715c-6.0101-8.0571-8.4366-14.561-7.5093-20.127 0.9975-5.9882 7.1841-13.822 12.613-15.972 2.6545-1.0512 9.9024 4.8551 12.547 10.224 2.7321 5.5471 2.8428 11.249 0.3202 16.485-2.325 4.826-10.111 15.708-11.585 16.191-0.58055 0.19024-3.4544-2.87-6.3864-6.8005z" style="fill:#999b3a"/></g><path d="m329.56 652.87c-0.33972-0.54968 0.5327-1.5236 1.9387-2.1642 1.406-0.64062 2.5564-1.5425 2.5564-2.0043 0-0.46171 0.50498-0.83948 1.1222-0.83948 1.5751 0 13.556-9.8603 15.4-12.674 1.8145-2.7692 3.2405-2.8843 7.9443-0.64123 3.9048 1.8621 4.4335 3.0513 1.7839 4.0123-0.9625 0.34912-3.3266 1.86-5.2537 3.3575-4.0591 3.1544-18.245 10.393-22.185 11.32-1.4788 0.34791-2.9667 0.18282-3.3064-0.36686zm-218.32-1.0586c0.19262-0.57786 3.4452-2.1321 7.2279-3.4539 7.8183-2.7319 15.912-6.6713 19.589-9.534 2.0303-1.5809 2.234-2.1193 1.0846-2.8653-2.5571-1.6596-10.054-2.2612-13.599-1.0914-6.5261 2.1538-6.7481-0.42905-0.83175-9.6778 5.6341-8.8074 5.9873-8.3269-6.1202-8.3269-9.3292 0-10.639-0.20579-10.357-1.6267 0.27795-1.3985 1.8824-1.6016 11.435-1.448l11.111 0.17872 1.5119-3.302c0.83155-1.8161 2.3051-5.4395 3.2745-8.052 0.96942-2.6125 2.1694-4.75 2.6666-4.75 1.6625 0 8.8243 4.0285 8.8243 4.9636 0 0.50763-0.80807 1.511-1.7957 2.2297-0.98764 0.71868-2.8243 2.9942-4.0816 5.0567l-2.2858 3.75h13.559c13.359 0 13.583-0.0368 15.197-2.5 0.90093-1.375 2.5209-2.5 3.6-2.5 2.3693 0 8.1945 5.5657 7.3149 6.9889-0.34477 0.55787-4.5811 1.0111-9.4508 1.0111h-8.8259l-1.7042 5.25c-0.93733 2.8875-2.5974 6.707-3.6891 8.4877l-1.9849 3.2377 2.324 0.903c12.572 4.885 14.102 6.1944 13.64 11.672-0.54345 6.4394-2.865 6.6391-9.0609 0.77927-2.9542-2.794-6.7464-5.7911-8.4272-6.6602-2.9585-1.5299-3.1859-1.4846-7.142 1.4248-5.2462 3.8581-14.365 7.5499-23.281 9.4254-8.3457 1.7556-10.191 1.8371-9.7221 0.42949zm36.25-23.699c0.99202-2.0625 2.412-5.4562 3.1555-7.5415l1.3518-3.7915-15.286 0.58306-3.0774 5.6666c-1.6926 3.1166-2.7838 5.9602-2.4251 6.3189 0.65371 0.65374 8.5376 2.1761 12.413 2.3968 1.4551 0.0829 2.5973-0.98962 3.8684-3.6324zm104.12 23.975c-0.30684-0.30685-0.5579-2.556-0.5579-4.9982 0-3.8196-0.24464-4.3459-1.75-3.7647-0.9625 0.37161-6.475 1.9626-12.25 3.5356-5.775 1.573-11.844 3.3716-13.488 3.997-2.628 1.0001-3.1999 0.875-4.75-1.0394-2.3629-2.9181-2.2214-4.7478 0.39714-5.1353 2.6495-0.39206 2.6812-0.57821 3.364-19.773 0.30237-8.4993 0.73023-15.634 0.95081-15.854 0.22058-0.22058 1.8482 0.3209 3.617 1.2033 3.5673 1.7796 11.445 2.1633 12.409 0.60434 1.0899-1.7635 4.083-1.0727 6.5 1.5 1.2918 1.375 1.8202 2.5 1.1743 2.5-0.72374 0-1.1743 1.7131-1.1743 4.4648 0 4.7108-1.6393 6.5352-5.8721 6.5352-1.3871 0-1.9572 0.61534-1.8529 2 0.16654 2.2109 2.664 2.661 4.5118 0.81324 0.91567-0.91567 1.7375-0.66933 3.598 1.0784 2.2769 2.139 2.57 2.1782 5.2632 0.70375 1.5686-0.8588 4.1984-2.6853 5.8439-4.0588l2.9918-2.4974-4.3724-4.3724-4.2484 3.8382c-4.9629 4.4837-6.0694 3.3666-2.4089-2.4319 1.4144-2.2406 3.6522-6.5172 4.973-9.5036 2.6713-6.0402 3.6323-6.4244 14.325-5.7268 7.1512 0.46658 5.6105 2.1385-2.0608 2.2363-3.405 0.0434-5.6285 0.30592-4.941 0.58333s1.25 1.1419 1.25 1.921c0 1.7778 5.2419 1.9071 7.9805 0.19675 1.6242-1.0143 2.4118-0.87765 4.6734 0.81085 3.1579 2.3577 4.1319 4.4091 2.0935 4.4091-1.173 0-8.7474 7.3687-8.7474 8.5098 0 0.55711 10.142 2.4923 14.423 2.7521 4.0306 0.24462 6.4612 2.7381 2.6691 2.7381-1.1412 0-2.6369 0.9-3.3239 2s-1.9309 2-2.7644 2c-2.242 0-4.2491 5.445-3.8512 10.448 0.2654 3.337-0.0659 4.6418-1.3883 5.4677-2.6286 1.6416-4.4725 1.3076-5.0538-0.91529-0.44472-1.7006-1.364-2-6.1414-2-4.9861 0-5.7195 0.26594-6.5169 2.3633-0.85551 2.2502-4.3074 4.0479-5.4941 2.8613zm16.442-8.0496c1.6418-0.14366 2-0.9 2-4.2227v-4.0477l-12.5 0.59543-0.30536 3.666c-0.37296 4.4776 0.7381 4.8899 10.805 4.009zm-36-9.675c0-7.4025-0.30415-9.5-1.3776-9.5-0.75765 0-1.9378 0.675-2.6224 1.5s-1.8648 1.5-2.6224 1.5c-0.75766 0-1.3776 0.45-1.3776 1s1.0984 1 2.441 1c2.6614 0 4.1989 1.4865 2.5753 2.4899-0.55897 0.34546-1.0163 3.0766-1.0163 6.0691 0 4.7743 0.24505 5.441 2 5.441 1.8596 0 2-0.66667 2-9.5zm15.25 6.9995c3.3541-0.52778 3.75-0.90204 3.75-3.5448 0-3.2055-0.55297-3.4554-4.4054-1.9907-1.972 0.74976-2.7304 0.6158-3.4124-0.60274-0.48224-0.86171-1.733-1.4019-2.7796-1.2003-1.4052 0.27063-1.9349 1.278-2.0256 3.8528-0.18456 5.236-0.77515 5.004 8.8729 3.4858zm22.75-9.4738c0-0.53588-1.3515-1.6732-3.0034-2.5274-2.8248-1.4608-3.1815-1.4214-6 0.66238-1.6481 1.2185-2.9966 2.3559-2.9966 2.5274s2.7 0.31194 6 0.31194 6-0.43844 6-0.97432zm-31-13.526v-3.5h-10v7h10zm27.027-0.25 2.1724-2.75-3.7049-0.31663c-5.8567-0.50054-6.9224 0.30949-4.3298 3.2912 2.7556 3.1692 3.1948 3.1524 5.8624-0.22456zm118.76 29.392c-3.141-2.9467-8.2019-6.6592-11.246-8.25-5.4392-2.8421-6.3549-3.7708-4.7166-4.7833 1.3396-0.82789 16.176 3.2276 19.64 5.3686 3.496 2.1606 5.5887 5.7566 5.0405 8.661-0.19323 1.0237-0.38577 2.4238-0.42785 3.1113-0.14852 2.4265-2.6419 1.191-8.29-4.1076zm73.581 1.3177c-3.8681-1.181-4.3358-2.7686-4.3534-14.777-0.0123-8.3983 0.15898-9.2688 1.7364-8.8246 0.9625 0.271 3.2125 0.78708 5 1.1468 2.9121 0.58611 4.7848 3.4952 2.25 3.4952-0.55354 0-1 2.631-1 5.893 0 6.9751 0.19228 7.107 10.359 7.107 9.1488 0 10.917-1.1897 12.539-8.4351 1.4297-6.3884 3.1019-7.3461 3.1019-1.7764 0 2.0837 0.90241 5.5586 2.0054 7.7219l2.0053 3.9334-2.5272 2.5281c-2.4119 2.4127-3.1079 2.5376-15.255 2.7364-7.0005 0.11456-14.138-0.22216-15.861-0.74825zm-19.57-1.7357c-3.602-0.7464-3.1411-4.1244 1.1279-8.2674 2.6981-2.6184 4.4941-5.4949 5.2908-8.4736 0.66336-2.4802 1.6737-4.3551 2.2452-4.1665 0.57151 0.18867 1.16 3.457 1.3078 7.263 0.39124 10.077-3.2358 15.04-9.9717 13.644zm58.285-6.4744c-0.67886-2.3375-2.7751-6.6056-4.6583-9.4846-4.6468-7.1041-4.3899-8.8709 0.89175-6.1332 5.612 2.9089 10.62 8.0098 11.271 11.48 0.8799 4.6902-0.84262 8.3882-3.9072 8.3882-1.9199 0-2.5947-0.79717-3.5975-4.25zm-157.08-30.25c0-21.351 0.27948-27.492 1.25-27.466 0.6875 0.0187 3.05 0.90339 5.25 1.9661 3.3481 1.6173 6.2554 1.9377 17.84 1.9661 13.037 0.032 13.942-0.0925 15.606-2.1471 1.5986-1.9742 2.0575-2.0603 4.838-0.90862 1.6895 0.69983 3.8492 2.1313 4.7992 3.181 1.6086 1.7775 1.6136 2.0342 0.0723 3.7374-1.4275 1.5773-1.655 4.6665-1.655 22.471v20.643l-3.25 0.88178c-3.6819 0.99897-4.75 0.68784-4.75-1.3836 0-1.1946-2.7357-1.441-16-1.441-10.155 0-16 0.37071-16 1.0147 0 0.99859-5.7861 4.9743-7.25 4.9816-0.4125 2e-3 -0.75-12.371-0.75-27.496zm40 13v-5.5h-32v11h32zm0-13.5v-5h-32v10h32zm0-14v-6h-32v12h32zm91.69 39.25c-0.23523-0.4125-0.98621-2.55-1.6688-4.75s-2.0691-5.4499-3.0811-7.222c-1.012-1.7721-1.5251-3.3968-1.1402-3.6104 1.1876-0.65921 6.5566 2.0036 9.4498 4.6867 4.3808 4.0627 3.475 11.646-1.391 11.646-0.95754 0-1.9334-0.3375-2.1687-0.75zm-25.69-31.083c0-10.358 0.28072-19.114 0.62382-19.457s2.3502 0.2569 4.4602 1.3333c3.3064 1.6868 5.9198 1.9572 18.918 1.9572 13.699 0 15.278-0.1833 17.228-2 2.8452-2.6507 3.7204-2.5397 7.8074 0.99028 3.2113 2.7736 3.3354 3.0896 1.7122 4.3602-1.509 1.1813-1.75 3.1865-1.75 14.558v13.188l-3.25 1.4066c-2.981 1.2902-3.3636 1.2448-4.622-0.54827-1.2634-1.8002-2.6286-1.9549-17.25-1.9549-13.562 0-15.878 0.22244-15.878 1.5248 0 0.83861-1.1543 1.9636-2.5651 2.5-5.5588 2.1135-5.4349 2.5207-5.4349-17.858zm21 4.8333v-5h-13.659l-0.1139 5-0.11389 5h13.887zm19.805 0.25-0.30479-4.75-12.5-0.59543v10.095h13.11zm-19.805-13.296v-5.0457l-13.5 0.59138-0.32046 3.3452c-0.5391 5.6276 0.0853 6.1548 7.2891 6.1548h6.5314zm19.805 0.29569-0.30479-4.75-12.5-0.59543v10.095h13.11zm-238.77 12.769c-0.92367-0.57086-1.144-2.5339-0.77533-6.9083l0.51499-6.1109h-9.8854c-7.9936 0-9.8854 0.27901-9.8854 1.4579 0 1.1251 1.7508 1.5246 7.6698 1.75 5.0273 0.19143 7.8122 0.72272 8.0833 1.5421 0.30654 0.92647-1.5492 1.25-7.1698 1.25-5.309 0-7.5833-0.36664-7.5833-1.2225 0-0.67237-0.76142-0.10987-1.692 1.25-2.2556 3.2961-3.3102 3.939-6.4906 3.9572-1.8662 0.0107-2.8882-0.63244-3.3582-2.1132-0.5268-1.6598 0.22904-2.9806 3.4326-5.9981 2.2595-2.1283 4.1082-4.7705 4.1082-5.8715 0-1.1128 0.66619-2.0019 1.5-2.0019 0.825 0 1.5 0.675 1.5 1.5 0 1.2268 1.7093 1.5 9.3834 1.5 8.6352 0 9.4263-0.16435 9.9224-2.0612 0.7528-2.8787-0.98972-3.2913-11.396-2.698-8.444 0.48146-11.931-0.37378-8.9745-2.2011 0.6555-0.40512 9.9349-0.77597 20.621-0.82412l19.429-0.0875 4.6407-5.3951 3.6868 3.2371c2.0277 1.7804 3.6868 3.6266 3.6868 4.1027 0 0.4761-5.5125 0.99198-12.25 1.1464-11.845 0.27149-12.261 0.35525-12.57 2.5308-0.31415 2.212-0.14033 2.25 10.285 2.25 7.9961 0 11.2-0.38998 13.024-1.5854 2.2881-1.4992 2.6147-1.4366 6.0088 1.1522 4.261 3.25 4.1899 5.608-0.19609 6.5051-1.7519 0.3583-4.5998 1.8417-6.3286 3.2964-2.8724 2.4169-5.8077 2.7896-4.4314 0.56252 0.33708-0.54542-2.7964-0.9309-7.567-0.9309-6.0713 0-8.0355-0.31794-7.7222-1.25 0.29-0.86277 2.9336-1.25 8.5338-1.25 6.8869 0 8.1826-0.26459 8.5696-1.75 0.41251-1.5834-0.53033-1.75-9.9027-1.75h-10.359l-0.29771 6.1395c-0.25052 5.1661-0.62897 6.2614-2.387 6.9083-1.1491 0.42284-2.6699 0.40995-3.3796-0.0286zm-19.031-2.0192c0-0.57778 3.1667-1 7.5-1s7.5 0.42222 7.5 1-3.1667 1-7.5 1-7.5-0.42222-7.5-1zm-117.98-1.9535c-0.85141-1.5909-0.49934-2.5755 1.8967-5.3044 1.6182-1.843 3.2477-4.5682 3.6211-6.056 0.89323-3.5589 2.1887-4.2393 4.3491-2.2841 1.3144 1.1895 3.8543 1.598 9.937 1.598 4.4942 0 8.1713-0.42071 8.1713-0.9349 0-1.8582-1.8692-5.7915-3.552-7.4742-2.8558-2.8557-0.36712-3.6088 5.4234-1.6412 6.1506 2.09 7.3857 3.4396 6.6807 7.3003l-0.50213 2.75h7.4398c6.4164 0 7.5871-0.27513 8.5102-2 0.5887-1.1 1.7282-2 2.5323-2 1.5711 0 9.4677 6.7032 9.4677 8.0369 0 0.4423-1.3027 1.0903-2.895 1.44s-5.2785 2.4142-8.1917 4.5877c-5.5601 4.1484-8.2985 4.047-5.6105-0.20777 0.81893-1.2963 1.7912-3.3694 2.1605-4.6069l0.67152-2.25h-40.135v3.9433c0 2.9413-0.56476 4.3389-2.2225 5.5-3.0419 2.1306-6.4945 1.9539-7.7526-0.39678z" style="fill:#999b3a"/></svg>
